<?xml version="1.0" encoding="utf-8"?>
<!-- Generator: Adobe Illustrator 25.2.3, SVG Export Plug-In . SVG Version: 6.00 Build 0)  -->
<svg version="1.1" id="Layer_1" xmlns="http://www.w3.org/2000/svg" xmlns:xlink="http://www.w3.org/1999/xlink" x="0px" y="0px"
	 viewBox="0 0 627.3 102.2" style="enable-background:new 0 0 627.3 102.2;" xml:space="preserve">
<style type="text/css">
	.st0{fill:#E40034;}
	.st1{fill:#0072BA;}
	.st2{fill-rule:evenodd;clip-rule:evenodd;fill:#E40034;}
</style>
<g>
	<path class="st0" d="M178.2,3.1c0,0,17.7,15.4,42.4,3.1c23.3-11.5,40.9-5.4,56.5,16c0,0-19.6-21-45.6-7.3
		C207,27.8,184.9,18.1,178.2,3.1"/>
</g>
<g>
	<path class="st1" d="M403.5,30.1c6.9,0,12.8,2.4,17.8,7.3s7.4,10.7,7.4,17.5s-2.5,12.6-7.4,17.5s-10.9,7.3-17.8,7.3h-17.4V30.1
		H403.5z M393.9,37.2v35.5h9.6c4.8,0,8.9-1.7,12.3-5.1c3.4-3.4,5.1-7.6,5.1-12.6s-1.7-9.2-5.1-12.6c-3.4-3.4-7.5-5.1-12.3-5.1
		L393.9,37.2L393.9,37.2z"/>
	<path class="st1" d="M436.8,30.1h7.8v49.7h-7.8V30.1z"/>
	<path class="st1" d="M455.3,30.1h20.9c4.6,0,8.4,1.5,11.4,4.4s4.5,6.6,4.5,10.9c0,2-0.3,3.9-1,5.7c-0.7,1.8-1.5,3.2-2.5,4.2
		c-1,1-1.9,1.9-2.9,2.7c-1,0.8-1.8,1.3-2.5,1.6l-1,0.5l11.4,19.9h-8.5l-10.6-19.2h-11.4v19.2h-7.8V30.1z M482,39.6
		c-1.6-1.6-3.5-2.3-5.8-2.3h-13.1v16.3h13.1c2.3,0,4.2-0.8,5.8-2.3c1.6-1.6,2.3-3.5,2.3-5.8C484.4,43.1,483.6,41.1,482,39.6z"/>
	<path class="st1" d="M536.2,72.7v7.1h-35.8V30.1h35.2v7.1h-27.4v13.1h21.7v7.1h-21.7v15.3C508.1,72.7,536.2,72.7,536.2,72.7z"/>
	<path class="st1" d="M571.8,30.4c2.3,0.7,4.2,1.5,5.7,2.4s2.8,1.9,4,2.8c1.1,0.9,2,1.7,2.5,2.4l0.8,1l-5,5
		c-0.1-0.2-0.3-0.4-0.6-0.8c-0.3-0.3-0.9-0.9-1.8-1.8s-2-1.6-3.1-2.3c-1.1-0.6-2.5-1.2-4.2-1.8c-1.7-0.5-3.6-0.8-5.5-0.8
		c-5.2,0-9.5,1.8-13.1,5.4c-3.6,3.6-5.4,7.9-5.4,13.1s1.8,9.5,5.4,13.1c3.6,3.6,7.9,5.4,13.1,5.4c1.9,0,3.8-0.3,5.6-0.8
		c1.8-0.5,3.2-1.2,4.4-2c1.2-0.8,2.2-1.5,3.1-2.3c0.9-0.8,1.6-1.4,2-1.9l0.6-0.9l5,5c-0.2,0.3-0.5,0.6-0.8,1.1
		c-0.4,0.5-1.2,1.2-2.5,2.4c-1.3,1.1-2.7,2.1-4.2,3c-1.5,0.9-3.4,1.7-5.8,2.4c-2.4,0.7-4.8,1.1-7.3,1.1c-7.4,0-13.7-2.5-18.7-7.4
		s-7.6-11-7.6-18.1s2.5-13.2,7.6-18.1s11.3-7.4,18.7-7.4C567.1,29.4,569.5,29.8,571.8,30.4z"/>
	<path class="st1" d="M624.2,30.1v7.1h-14.9v42.6h-7.8V37.2h-14.9v-7.1H624.2z"/>
</g>
<g>
	<path class="st2" d="M190.2,71.2c-1.3,0.2-2.4,0.3-3.3,0.3c-0.7,0-1.3-0.1-1.9-0.4c-0.5-0.2-1-0.6-1.4-1.2
		c-0.4-0.6-0.6-1.3-0.9-2.3c-0.2-1-0.3-2.1-0.3-3.6V38.7h11.1l1.1-8.5h-12.2V17.3h-8.8l-3.1,12.9l-7.3,2.5v6.1h7.3v26.7
		c0,2.4,0.2,4.5,0.6,6.4c0.4,1.9,1.2,3.5,2.2,4.9c1.1,1.3,2.5,2.4,4.3,3.1c1.8,0.7,4.1,1.1,6.8,1.1c2,0,4.1-0.4,6.3-1.2
		c2.1-0.8,4.3-2.1,6.5-3.8l-2.8-5.8C192.8,70.5,191.4,71,190.2,71.2"/>
	<path class="st2" d="M157.5,58.3c-0.8-1-1.6-2-2.6-2.7c-1-0.8-1.9-1.4-2.9-1.9c-1-0.5-1.9-0.9-2.8-1.3c-0.9-0.3-1.7-0.6-2.4-0.9
		c-1.3-0.5-2.6-0.9-3.9-1.4c-1.3-0.4-2.6-0.9-3.9-1.4c-0.8-0.3-1.6-0.6-2.4-0.9c-0.8-0.3-1.5-0.7-2.1-1.2c-0.6-0.5-1.1-1-1.5-1.6
		c-0.4-0.6-0.6-1.3-0.6-2.1c0-0.8,0.1-1.5,0.4-2.1c0.3-0.7,0.7-1.3,1.3-1.8c0.6-0.5,1.3-0.9,2.3-1.2c0.9-0.3,2-0.5,3.3-0.5
		c1.5,0,2.9,0.1,4.1,0.4c1.2,0.3,2.3,0.7,3.3,1.2c1,0.6,2,1.2,2.9,2c0.9,0.8,1.9,1.6,2.8,2.6l5.4-8.4c-2.6-2.1-5.4-3.6-8.6-4.5
		c-3.1-0.9-6.6-1.3-10.4-1.3c-2.4,0-4.7,0.3-7,0.9c-2.3,0.5-4.3,1.4-6.1,2.5c-1.8,1.1-3.2,2.5-4.3,4.2c-1.1,1.7-1.6,3.6-1.6,5.8
		c0,1.8,0.3,3.4,0.8,4.7c0.5,1.3,1.2,2.6,2,3.7c0.8,1.1,1.8,2,2.8,2.8c1,0.8,2.1,1.4,3.2,2c1.1,0.6,2.1,1,3.1,1.4
		c1,0.4,1.8,0.7,2.5,0.9c1.2,0.5,2.5,1,3.8,1.4c1.2,0.4,2.5,0.9,3.8,1.4c0.7,0.2,1.3,0.5,2,0.9c0.7,0.4,1.3,0.8,1.8,1.2
		c0.6,0.4,1,1,1.3,1.6c0.3,0.6,0.5,1.3,0.5,2.1c0,1.1-0.2,2-0.6,2.8c-0.4,0.8-1,1.4-1.7,1.9c-0.7,0.5-1.6,0.8-2.5,1.1
		c-1,0.2-2.1,0.3-3.2,0.3c-5.2,0-10-2.5-14.6-7.5l-6.5,7.9c1.4,1.5,2.9,2.8,4.5,3.8c1.6,1,3.3,1.8,5,2.4c1.8,0.6,3.6,1,5.6,1.3
		c2,0.2,4.1,0.4,6.3,0.4c2.4,0,4.9-0.3,7.3-0.9c2.4-0.6,4.5-1.5,6.3-2.7c1.9-1.2,3.4-2.7,4.5-4.4c1.2-1.8,1.7-3.8,1.7-6.1
		c0-1.8-0.2-3.5-0.7-4.9C158.9,60.6,158.3,59.4,157.5,58.3z"/>
	<path class="st2" d="M113.7,72.5c-0.7,0.1-1.1,0.1-1.4,0.1c-0.7,0-1.2-0.1-1.7-0.3c-0.5-0.2-0.8-0.5-1.1-0.9
		c-0.3-0.4-0.5-1-0.6-1.7c-0.1-0.7-0.2-1.6-0.2-2.7V44.9c0-2.7-0.6-5-1.7-7c-1.1-2-2.7-3.6-4.6-4.9c-1.9-1.2-4.1-2.2-6.5-2.8
		c-2.4-0.6-5-0.9-7.7-0.9c-4,0-7.7,0.7-11.3,2c-3.6,1.3-6.7,3.2-9.3,5.6l6.3,7.2c1.4-1.3,2.6-2.4,3.8-3.3c1.2-0.9,2.3-1.5,3.3-2
		c1.1-0.5,2.1-0.9,3.2-1.1c1-0.2,2.2-0.3,3.3-0.3c1.4,0,2.6,0.2,3.8,0.5c1.1,0.3,2.1,0.9,2.9,1.6c0.8,0.7,1.5,1.7,1.9,2.8
		c0.5,1.2,0.7,2.6,0.7,4.2v1.8c-2.6,0-5.2,0.1-7.7,0.3c-2.5,0.2-4.9,0.6-7.2,1.1c-2.3,0.5-4.3,1.2-6.2,2.1c-1.9,0.9-3.5,2.1-4.9,3.4
		c-1.4,1.4-2.5,3-3.2,4.9c-0.8,1.9-1.2,4.2-1.2,6.7c0,2.3,0.3,4.3,1,6c0.7,1.7,1.6,3.2,2.9,4.3c1.2,1.1,2.8,2,4.6,2.6
		c1.8,0.6,3.8,0.9,6,0.9c1.3,0,2.7-0.1,4.1-0.3c1.4-0.2,2.8-0.5,4.2-1c1.4-0.5,2.8-1.1,4.2-1.9c1.4-0.8,2.7-1.8,4-3
		c0.4,2,1.4,3.5,3,4.5c1.6,1.1,3.5,1.6,5.8,1.6c1.2,0,2.4-0.1,3.4-0.3c1-0.2,2-0.4,2.8-0.7c0.9-0.3,1.7-0.7,2.5-1
		c0.8-0.4,1.5-0.9,2.2-1.3l-1.3-5.3C115,72.3,114.3,72.4,113.7,72.5 M96.7,68.9c-1,0.7-2,1.3-3,1.8c-1,0.5-1.9,0.8-2.9,1.1
		c-0.9,0.3-1.9,0.4-2.8,0.5c-0.9,0.1-1.8,0.1-2.7,0.1c-0.9,0-1.8-0.1-2.6-0.3c-0.8-0.2-1.5-0.6-2.1-1.2c-0.6-0.5-1-1.3-1.3-2.1
		c-0.3-0.9-0.5-2-0.5-3.4c0-1.6,0.3-3.1,0.8-4.4c0.5-1.3,1.5-2.5,2.8-3.5c1.4-1,3.2-1.8,5.5-2.4c2.3-0.6,5.2-1,8.7-1.1L96.7,68.9
		L96.7,68.9L96.7,68.9z"/>
	<rect x="204.7" y="30.1" class="st0" width="12" height="49.7"/>
	<path class="st2" d="M314.3,32.2c-1.1-0.5-2.2-0.9-3-1.2c-0.9-0.4-1.8-0.7-2.7-0.9c-0.9-0.3-1.9-0.4-2.9-0.6
		c-1-0.1-2.2-0.2-3.5-0.2c-3,0-5.8,0.4-8.3,1.1c-2.5,0.8-4.7,1.9-6.5,3.3c-1.8,1.5-3.3,3.3-4.3,5.3c-1.1,2.1-1.6,4.5-1.6,7.3
		c0,1.6,0.1,3,0.4,4.3c0.3,1.3,0.6,2.5,1.2,3.6c0.5,1.1,1.3,2.2,2.1,3.1c0.8,1,1.9,1.9,3.2,2.9c-1.2,0.4-2.3,1-3.2,1.6
		c-1,0.6-1.9,1.3-2.6,2.1c-0.8,0.8-1.3,1.6-1.7,2.5c-0.4,0.9-0.6,1.9-0.6,3c0,1.5,0.3,2.8,0.9,3.9c0.6,1,1.4,1.9,2.2,2.6
		c0.9,0.7,1.8,1.3,2.7,1.7c0.9,0.5,1.7,0.9,2.4,1.2c-1.2,0.7-2.4,1.4-3.6,2.2c-1.2,0.8-2.3,1.7-3.2,2.7c-0.9,1-1.7,2.2-2.3,3.5
		c-0.6,1.3-0.8,2.8-0.8,4.5c0,1.5,0.4,2.9,1.2,4.1c0.8,1.2,2.1,2.3,3.8,3.2c1.7,0.9,3.8,1.6,6.4,2.1c2.6,0.5,5.7,0.7,9.3,0.7
		c1.9,0,4-0.1,6.1-0.2c2.1-0.2,4.2-0.5,6.2-0.9c2-0.4,3.9-1,5.7-1.8c1.8-0.7,3.4-1.7,4.8-2.9c1.4-1.2,2.5-2.7,3.3-4.3
		c0.8-1.7,1.2-3.7,1.2-6c0-1.7-0.3-3.2-0.9-4.4c-0.6-1.3-1.5-2.3-2.5-3.2c-1.1-0.9-2.3-1.6-3.7-2.2c-1.4-0.6-2.9-1.1-4.5-1.5
		c-1.6-0.4-3.2-0.7-4.9-1c-1.7-0.3-3.3-0.6-4.9-0.8c-1-0.2-2-0.3-3.1-0.5c-1.1-0.2-2.2-0.4-3.4-0.6c-1.1-0.2-2.3-0.5-3.3-0.8
		c-1.1-0.3-2-0.6-2.8-0.9c-0.8-0.3-1.5-0.7-2-1.1c-0.5-0.4-0.8-0.8-0.8-1.2c0-0.9,0.2-1.8,0.7-2.5c0.5-0.7,1-1.3,1.7-1.9
		c1.2,0.6,2.7,1,4.5,1.4c1.8,0.3,4,0.5,6.7,0.5c1.9,0,4-0.4,6.1-1.2c2.1-0.8,4-1.9,5.8-3.3c1.8-1.5,3.2-3.3,4.4-5.4
		c1.1-2.1,1.7-4.5,1.7-7.2c0-2.4-0.3-4.4-0.9-6.1c-0.6-1.7-1.3-3-2-3.9l8.6,1.4l2-8.9c-2.1,0-4.4,0.2-6.8,0.5
		C319.5,30.9,317,31.4,314.3,32.2z M289.7,86.3c0.1-0.7,0.3-1.4,0.6-2.1c0.3-0.7,0.6-1.3,1.1-2c0.4-0.6,1-1.2,1.6-1.7
		c1.6,0.2,3.3,0.4,5.2,0.7c1.8,0.3,4,0.7,6.5,1.3c1.6,0.3,3,0.7,4.3,1c1.3,0.3,2.5,0.7,3.5,1.1c1,0.4,1.7,0.9,2.3,1.4
		c0.6,0.5,0.8,1.2,0.8,1.9c0,1.1-0.3,2.1-0.8,3.1c-0.5,1-1.3,1.8-2.5,2.5c-1.2,0.7-2.7,1.3-4.7,1.7c-2,0.4-4.4,0.6-7.3,0.6
		c-1.4,0-2.7-0.2-4-0.6c-1.3-0.4-2.4-1-3.4-1.7c-1-0.7-1.8-1.5-2.4-2.4c-0.6-0.9-0.9-1.8-0.9-2.8C289.5,87.7,289.5,87,289.7,86.3z
		 M309.1,50.7c-0.2,1.4-0.5,2.6-1.1,3.6c-0.5,1-1.3,1.9-2.3,2.5c-1,0.6-2.4,0.9-4.1,0.9c-1.7,0-3.1-0.3-4.2-0.9
		c-1.2-0.7-2.1-1.5-2.8-2.6c-0.7-1.1-1.3-2.3-1.6-3.7c-0.3-1.4-0.5-2.8-0.5-4.4c0-3.3,0.8-5.7,2.3-7.3c1.5-1.6,3.5-2.4,5.9-2.4
		c2.8,0,4.9,0.8,6.4,2.4c1.5,1.6,2.2,4.2,2.2,7.7C309.4,47.9,309.3,49.4,309.1,50.7z"/>
	<path class="st2" d="M370.4,62c-0.5-1.4-1.1-2.6-1.9-3.7c-0.8-1-1.6-2-2.6-2.7c-1-0.8-2-1.4-2.9-1.9c-1-0.5-1.9-0.9-2.9-1.3
		c-0.9-0.3-1.7-0.6-2.4-0.9c-1.3-0.5-2.6-0.9-3.9-1.4c-1.3-0.5-2.6-0.9-3.9-1.4c-0.8-0.3-1.7-0.6-2.4-0.9c-0.8-0.3-1.5-0.7-2.1-1.2
		c-0.6-0.5-1.2-1-1.5-1.6c-0.4-0.6-0.6-1.3-0.6-2.1c0-0.8,0.1-1.5,0.4-2.1c0.3-0.7,0.7-1.3,1.3-1.8c0.6-0.5,1.4-0.9,2.3-1.3
		c0.9-0.3,2-0.5,3.3-0.5c1.5,0,2.9,0.1,4.1,0.4c1.2,0.3,2.3,0.7,3.3,1.2c1,0.6,2,1.2,2.9,2c0.9,0.8,1.8,1.6,2.8,2.6l5.4-8.4
		c-2.6-2.1-5.4-3.6-8.5-4.5c-3.1-0.9-6.6-1.3-10.4-1.3c-2.4,0-4.7,0.3-7,0.9c-2.3,0.5-4.3,1.4-6,2.5c-1.8,1.1-3.2,2.5-4.3,4.2
		c-1.1,1.7-1.6,3.6-1.6,5.8c0,1.8,0.3,3.4,0.8,4.7c0.5,1.3,1.2,2.6,2,3.7c0.8,1.1,1.8,2,2.9,2.8c1,0.8,2.1,1.4,3.2,2
		c1.1,0.6,2.1,1,3.1,1.4c1,0.4,1.8,0.7,2.5,0.9c1.3,0.5,2.5,1,3.8,1.4c1.2,0.4,2.5,0.9,3.8,1.4c0.7,0.2,1.3,0.5,2,0.9
		c0.7,0.4,1.3,0.8,1.8,1.2c0.6,0.4,1,1,1.4,1.6c0.3,0.6,0.5,1.3,0.5,2.1c0,1.1-0.2,2-0.6,2.8c-0.4,0.8-1,1.4-1.7,1.9
		c-0.7,0.5-1.6,0.8-2.5,1.1c-1,0.2-2.1,0.3-3.2,0.3c-5.2,0-10-2.5-14.6-7.5l-6.5,7.9c1.4,1.5,2.9,2.8,4.5,3.8c1.6,1,3.3,1.8,5,2.4
		c1.8,0.6,3.6,1,5.6,1.3c2,0.2,4.1,0.4,6.3,0.4c2.5,0,4.9-0.3,7.3-0.9c2.4-0.6,4.5-1.5,6.3-2.7c1.9-1.2,3.4-2.7,4.5-4.4
		c1.1-1.8,1.7-3.8,1.7-6.1C371.1,65,370.9,63.4,370.4,62z"/>
	<path class="st2" d="M268,34c-1.6-1.5-3.6-2.7-5.8-3.5c-2.2-0.8-4.6-1.2-7.2-1.2c-1.6,0-3.1,0.2-4.5,0.5c-1.4,0.3-2.8,0.8-4,1.3
		c-1.2,0.5-2.4,1.1-3.4,1.8c-1,0.7-1.9,1.3-2.7,2c0-0.4-0.1-0.8-0.2-1.3c-0.1-0.5-0.2-1-0.3-1.4c-0.1-0.4-0.2-0.9-0.3-1.2
		c-0.1-0.4-0.2-0.7-0.3-0.9H228c0.3,1.6,0.5,3.2,0.5,4.7c0,1.5,0.1,2.8,0.1,3.8v41.2h12V41.4c0.9-0.5,1.8-0.9,2.8-1.3
		c1-0.4,2-0.7,3-1c1-0.3,2.1-0.5,3.1-0.6c1-0.2,1.9-0.2,2.8-0.2c1.5,0,2.8,0.2,3.9,0.6c1.1,0.4,2.1,1,2.9,1.8c0.8,0.8,1.4,2,1.8,3.3
		c0.4,1.4,0.6,3.1,0.6,5.1v30.7h12v-33c0-2.8-0.5-5.2-1.4-7.4C271,37.3,269.7,35.5,268,34"/>
</g>
<polygon class="st2" points="45.7,7.7 45.7,35.3 15.8,35.3 15.8,7.7 3.1,7.7 3.1,42.1 3.1,55.8 3.1,79.9 15.8,79.9 15.8,54.3 
	15.8,45.4 45.7,45.4 45.7,46.7 45.7,79.9 58.4,79.9 58.4,51.3 58.4,45.8 58.4,7.7 "/>
</svg>
